<svg viewBox="0 0 256 256" xmlns="http://www.w3.org/2000/svg" role="img" aria-label="torque">
  <defs>
    <clipPath id="plateClip">
      <rect x="18" y="18" width="220" height="220" rx="44"/>
    </clipPath>
    <clipPath id="tClip">
      <path d="M64 70H192L181 105H146V188H110V105H75Z"/>
    </clipPath>
  </defs>
  <rect x="18" y="18" width="220" height="220" rx="44" fill="#c9cfd6"/>
  <g clip-path="url(#plateClip)">
    <path d="M-8 22H264V70H-8Z" fill="#f8fafb" opacity="0.78"/>
    <path d="M-8 70H264V111H-8Z" fill="#929aa3" opacity="0.36"/>
    <path d="M-8 111H264V150H-8Z" fill="#f1f4f6" opacity="0.68"/>
    <path d="M-8 150H264V191H-8Z" fill="#5e6873" opacity="0.40"/>
    <path d="M-8 191H264V244H-8Z" fill="#dce1e5" opacity="0.64"/>
    <path d="M-14 49C58 18 146 22 272 4V75C163 105 81 99 -14 132Z" fill="#ffffff" opacity="0.66"/>
    <path d="M-10 111C64 90 151 96 270 65V101C159 132 80 124 -10 159Z" fill="#ffffff" opacity="0.30"/>
    <path d="M-12 178C70 159 154 165 268 132V191C165 221 82 214 -12 240Z" fill="#121821" opacity="0.26"/>
    <path d="M10 222C76 198 160 203 246 181V245H10Z" fill="#f8fafb" opacity="0.28"/>
  </g>
  <rect x="20" y="20" width="216" height="216" rx="42" fill="none" stroke="#ffffff" stroke-opacity="0.72" stroke-width="2"/>
  <rect x="23" y="23" width="210" height="210" rx="39" fill="none" stroke="#05070a" stroke-opacity="0.44" stroke-width="2"/>
  <path d="M69 77H197L186 112H151V195H115V112H80Z" fill="#05070a" opacity="0.58"/>
  <g clip-path="url(#tClip)">
    <rect x="54" y="62" width="148" height="136" fill="#05070b"/>
    <path d="M54 62H202V94H54Z" fill="#0f141a" opacity="0.86"/>
    <path d="M54 94H202V198H54Z" fill="#020305" opacity="0.94"/>
    <path d="M64 78H192 M65 86H190 M68 95H186 M82 103H174 M110 120H146 M110 136H146 M110 152H146 M110 168H146 M110 184H146"
      fill="none" stroke="#ffffff" stroke-opacity="0.06" stroke-width="1.2" stroke-linecap="round"/>
  </g>
  <path d="M64 70H192L181 105H146V188H110V105H75Z" fill="none" stroke="#05070b" stroke-opacity="0.92" stroke-width="3.2" stroke-linejoin="round"/>
  <path d="M64 70H192L181 105H146V188H110V105H75Z" fill="none" stroke="#ffffff" stroke-opacity="0.50" stroke-width="1.3" stroke-linejoin="round"/>
  <path d="M65 70H190L181 104H146" fill="none" stroke="#ffffff" stroke-opacity="0.88" stroke-width="2.4" stroke-linecap="round" stroke-linejoin="round"/>
  <path d="M75 105H110V188" fill="none" stroke="#dfe4e8" stroke-opacity="0.54" stroke-width="1.6" stroke-linecap="round" stroke-linejoin="round"/>
  <path d="M192 70L181 105H146V188H110" fill="none" stroke="#020305" stroke-opacity="0.62" stroke-width="2.2" stroke-linecap="round" stroke-linejoin="round"/>
</svg>
