<svg viewBox="0 0 256 256" xmlns="http://www.w3.org/2000/svg" role="img" aria-label="torque">
  <defs>
    <linearGradient id="steel" x1="50" y1="34" x2="206" y2="222" gradientUnits="userSpaceOnUse">
      <stop offset="0" stop-color="#ffffff"/>
      <stop offset="0.22" stop-color="#edf1f5"/>
      <stop offset="0.48" stop-color="#8f969e"/>
      <stop offset="0.7" stop-color="#f7f8fa"/>
      <stop offset="1" stop-color="#5f666e"/>
    </linearGradient>
    <linearGradient id="edge" x1="55" y1="30" x2="196" y2="222" gradientUnits="userSpaceOnUse">
      <stop offset="0" stop-color="#ffffff" stop-opacity="0.94"/>
      <stop offset="0.48" stop-color="#b8bdc4" stop-opacity="0.42"/>
      <stop offset="1" stop-color="#ffffff" stop-opacity="0.18"/>
    </linearGradient>
  </defs>
  <rect x="18" y="18" width="220" height="220" rx="46" fill="#050505"/>
  <rect x="18.75" y="18.75" width="218.5" height="218.5" rx="45.25" fill="none" stroke="url(#edge)" stroke-width="1.5"/>
  <circle cx="128" cy="128" r="82" fill="url(#steel)"/>
  <circle cx="128" cy="128" r="82" fill="none" stroke="#ffffff" stroke-opacity="0.28" stroke-width="2"/>
  <path
    d="M128 54
       C143 54 148 72 160 78
       C173 85 191 75 198 88
       C205 101 190 112 190 128
       C190 144 205 155 198 168
       C191 181 173 171 160 178
       C148 184 143 202 128 202
       C113 202 108 184 96 178
       C83 171 65 181 58 168
       C51 155 66 144 66 128
       C66 112 51 101 58 88
       C65 75 83 85 96 78
       C108 72 113 54 128 54Z"
    fill="#050505"
    stroke="#edf1f5"
    stroke-opacity="0.9"
    stroke-width="5"
    stroke-linejoin="round"
  />
  <rect x="84" y="98" width="88" height="13" rx="6.5" fill="#f7f8fa"/>
  <rect x="121.5" y="100" width="13" height="65" rx="6.5" fill="#f7f8fa"/>
  <rect x="104" y="157" width="48" height="8" rx="4" fill="#b8bdc4"/>
  <circle cx="128" cy="128" r="7" fill="#ffffff"/>
  <circle cx="128" cy="128" r="3" fill="#050505"/>
</svg>
